ffmpeg version 8.1-full_build-www.gyan.dev Copyright (c) 2000-2026 the FFmpeg developers
  built with gcc 15.2.0 (Rev11, Built by MSYS2 project)
  configuration: --enable-gpl --enable-version3 --enable-static --disable-w32threads --disable-autodetect --enable-cairo --enable-fontconfig --enable-iconv --enable-gnutls --enable-lcms2 --enable-libxml2 --enable-gmp --enable-bzlib --enable-lzma --enable-libsnappy --enable-zlib --enable-librist --enable-libsrt --enable-libssh --enable-libzmq --enable-avisynth --enable-libbluray --enable-libcaca --enable-libdvdnav --enable-libdvdread --enable-sdl2 --enable-libaribb24 --enable-libaribcaption --enable-libdav1d --enable-libdavs2 --enable-libopenjpeg --enable-libquirc --enable-libuavs3d --enable-libxevd --enable-libzvbi --enable-liboapv --enable-libqrencode --enable-librav1e --enable-libsvtav1 --enable-libvvenc --enable-libwebp --enable-libx264 --enable-libx265 --enable-libxavs2 --enable-libxeve --enable-libxvid --enable-libaom --enable-libjxl --enable-libsvtjpegxs --enable-libvpx --enable-mediafoundation --enable-libass --enable-frei0r --enable-libfreetype --enable-libfribidi --enable-libharfbuzz --enable-liblensfun --enable-libvidstab --enable-libvmaf --enable-libzimg --enable-amf --enable-cuda-llvm --enable-cuvid --enable-dxva2 --enable-d3d11va --enable-d3d12va --enable-ffnvcodec --enable-libvpl --enable-nvdec --enable-nvenc --enable-vaapi --enable-libshaderc --enable-vulkan --enable-libplacebo --enable-opencl --enable-libcdio --enable-openal --enable-libgme --enable-libmodplug --enable-libopenmpt --enable-libopencore-amrwb --enable-libmp3lame --enable-libshine --enable-libtheora --enable-libtwolame --enable-libvo-amrwbenc --enable-libcodec2 --enable-libilbc --enable-libgsm --enable-liblc3 --enable-libopencore-amrnb --enable-libopus --enable-libspeex --enable-libvorbis --enable-ladspa --enable-libbs2b --enable-libflite --enable-libmysofa --enable-librubberband --enable-libsoxr --enable-chromaprint --enable-whisper
  libavutil      60. 26.100 / 60. 26.100
  libavcodec     62. 28.100 / 62. 28.100
  libavformat    62. 12.100 / 62. 12.100
  libavdevice    62.  3.100 / 62.  3.100
  libavfilter    11. 14.100 / 11. 14.100
  libswscale      9.  5.100 /  9.  5.100
  libswresample   6.  3.100 /  6.  3.100
-filter_complex_script is deprecated, use -/filter_complex C:\t\xevx0kod0\filter_complex.txt instead
[in#0/mp3 @ 0000012de3d4a6c0] Estimating duration from bitrate, this may be inaccurate
Input #0, mp3, from 'C:\t\xevx0kod0\seg_001.mp3':
  Duration: 00:00:03.84, start: 0.000000, bitrate: 48 kb/s
  Stream #0:0: Audio: mp3 (mp3float), 24000 Hz, mono, fltp, 48 kb/s
[in#1/mp3 @ 0000012de3d59280] Estimating duration from bitrate, this may be inaccurate
Input #1, mp3, from 'C:\t\xevx0kod0\seg_002.mp3':
  Duration: 00:00:04.66, start: 0.000000, bitrate: 48 kb/s
  Stream #1:0: Audio: mp3 (mp3float), 24000 Hz, mono, fltp, 48 kb/s
[in#2/mp3 @ 0000012de3d760c0] Estimating duration from bitrate, this may be inaccurate
Input #2, mp3, from 'C:\t\xevx0kod0\seg_003.mp3':
  Duration: 00:00:05.98, start: 0.000000, bitrate: 48 kb/s
  Stream #2:0: Audio: mp3 (mp3float), 24000 Hz, mono, fltp, 48 kb/s
[in#3/mp3 @ 0000012de3da51c0] Estimating duration from bitrate, this may be inaccurate
Input #3, mp3, from 'C:\t\xevx0kod0\seg_004.mp3':
  Duration: 00:00:04.61, start: 0.000000, bitrate: 48 kb/s
  Stream #3:0: Audio: mp3 (mp3float), 24000 Hz, mono, fltp, 48 kb/s
[in#4/mp3 @ 0000012de3dcc0c0] Estimating duration from bitrate, this may be inaccurate
Input #4, mp3, from 'C:\t\xevx0kod0\seg_005.mp3':
  Duration: 00:00:04.61, start: 0.000000, bitrate: 48 kb/s
  Stream #4:0: Audio: mp3 (mp3float), 24000 Hz, mono, fltp, 48 kb/s
[in#5/mp3 @ 0000012de3dcbe00] Estimating duration from bitrate, this may be inaccurate
Input #5, mp3, from 'C:\t\xevx0kod0\seg_006.mp3':
  Duration: 00:00:04.94, start: 0.000000, bitrate: 48 kb/s
  Stream #5:0: Audio: mp3 (mp3float), 24000 Hz, mono, fltp, 48 kb/s
[in#6/mp3 @ 0000012de4048100] Estimating duration from bitrate, this may be inaccurate
Input #6, mp3, from 'C:\t\xevx0kod0\seg_007.mp3':
  Duration: 00:00:06.84, start: 0.000000, bitrate: 48 kb/s
  Stream #6:0: Audio: mp3 (mp3float), 24000 Hz, mono, fltp, 48 kb/s
Stream mapping:
  Stream #0:0 (mp3float) -> adelay:default
  Stream #1:0 (mp3float) -> adelay:default
  Stream #2:0 (mp3float) -> adelay:default
  Stream #3:0 (mp3float) -> adelay:default
  Stream #4:0 (mp3float) -> adelay:default
  Stream #5:0 (mp3float) -> adelay:default
  Stream #6:0 (mp3float) -> adelay:default
  apad:default -> Stream #0:0 (libmp3lame)
Press [q] to stop, [?] for help
Output #0, mp3, to 'G:\workspace\yinghe-shijie\videos\exports\短视频\手机电车都在用，锂电池凭啥能充这么多次？\电池容量为何越来越低_短视频\电池容量为何越来越低_短视频_中文解说.mp3':
  Metadata:
    TSSE            : Lavf62.12.100
  Stream #0:0: Audio: mp3, 44100 Hz, stereo, fltp, 192 kb/s
    Metadata:
      encoder         : Lavc62.28.100 libmp3lame
[out#0/mp3 @ 0000012de407c140] video:0KiB audio:1403KiB subtitle:0KiB other streams:0KiB global headers:0KiB muxing overhead: 0.046717%
size=    1403KiB time=00:00:59.80 bitrate= 192.2kbits/s speed= 135x elapsed=0:00:00.44    
ffmpeg version 8.1-full_build-www.gyan.dev Copyright (c) 2000-2026 the FFmpeg developers
  built with gcc 15.2.0 (Rev11, Built by MSYS2 project)
  configuration: --enable-gpl --enable-version3 --enable-static --disable-w32threads --disable-autodetect --enable-cairo --enable-fontconfig --enable-iconv --enable-gnutls --enable-lcms2 --enable-libxml2 --enable-gmp --enable-bzlib --enable-lzma --enable-libsnappy --enable-zlib --enable-librist --enable-libsrt --enable-libssh --enable-libzmq --enable-avisynth --enable-libbluray --enable-libcaca --enable-libdvdnav --enable-libdvdread --enable-sdl2 --enable-libaribb24 --enable-libaribcaption --enable-libdav1d --enable-libdavs2 --enable-libopenjpeg --enable-libquirc --enable-libuavs3d --enable-libxevd --enable-libzvbi --enable-liboapv --enable-libqrencode --enable-librav1e --enable-libsvtav1 --enable-libvvenc --enable-libwebp --enable-libx264 --enable-libx265 --enable-libxavs2 --enable-libxeve --enable-libxvid --enable-libaom --enable-libjxl --enable-libsvtjpegxs --enable-libvpx --enable-mediafoundation --enable-libass --enable-frei0r --enable-libfreetype --enable-libfribidi --enable-libharfbuzz --enable-liblensfun --enable-libvidstab --enable-libvmaf --enable-libzimg --enable-amf --enable-cuda-llvm --enable-cuvid --enable-dxva2 --enable-d3d11va --enable-d3d12va --enable-ffnvcodec --enable-libvpl --enable-nvdec --enable-nvenc --enable-vaapi --enable-libshaderc --enable-vulkan --enable-libplacebo --enable-opencl --enable-libcdio --enable-openal --enable-libgme --enable-libmodplug --enable-libopenmpt --enable-libopencore-amrwb --enable-libmp3lame --enable-libshine --enable-libtheora --enable-libtwolame --enable-libvo-amrwbenc --enable-libcodec2 --enable-libilbc --enable-libgsm --enable-liblc3 --enable-libopencore-amrnb --enable-libopus --enable-libspeex --enable-libvorbis --enable-ladspa --enable-libbs2b --enable-libflite --enable-libmysofa --enable-librubberband --enable-libsoxr --enable-chromaprint --enable-whisper
  libavutil      60. 26.100 / 60. 26.100
  libavcodec     62. 28.100 / 62. 28.100
  libavformat    62. 12.100 / 62. 12.100
  libavdevice    62.  3.100 / 62.  3.100
  libavfilter    11. 14.100 / 11. 14.100
  libswscale      9.  5.100 /  9.  5.100
  libswresample   6.  3.100 /  6.  3.100
Input #0, mov,mp4,m4a,3gp,3g2,mj2, from 'G:\workspace\yinghe-shijie\videos\raw\手机电车都在用，锂电池凭啥能充这么多次？.mp4':
  Metadata:
    major_brand     : isom
    minor_version   : 512
    compatible_brands: isomiso2avc1mp41
    encoder         : Lavf58.76.100
  Duration: 00:09:29.96, start: 0.000000, bitrate: 1971 kb/s
  Stream #0:0[0x1](und): Video: h264 (High) (avc1 / 0x31637661), yuv420p(tv, bt709, progressive), 1920x1080 [SAR 1:1 DAR 16:9], 1837 kb/s, 24 fps, 24 tbr, 12288 tbn (default)
    Metadata:
      handler_name    : ISO Media file produced by Google Inc.
  Stream #0:1[0x2](eng): Audio: aac (LC) (mp4a / 0x6134706D), 44100 Hz, stereo, fltp, 127 kb/s (default)
    Metadata:
      handler_name    : ISO Media file produced by Google Inc.
Input #1, mp3, from 'G:\workspace\yinghe-shijie\videos\exports\短视频\手机电车都在用，锂电池凭啥能充这么多次？\电池容量为何越来越低_短视频\电池容量为何越来越低_短视频_中文解说.mp3':
  Metadata:
    encoder         : Lavf62.12.100
  Duration: 00:00:59.80, start: 0.025057, bitrate: 192 kb/s
  Stream #1:0: Audio: mp3 (mp3float), 44100 Hz, stereo, fltp, 192 kb/s, start 0.025057
    Metadata:
      encoder         : Lavc62.28
Input #2, mp3, from 'G:\workspace\yinghe-shijie\music\硬核视界_通用BGM_舒缓科普探索_CC0.mp3':
  Metadata:
    artist          : Cleyton Kauffman
    title           : Exploration Theme
    encoder         : Lavf62.12.100
  Duration: 00:02:14.40, start: 0.025057, bitrate: 192 kb/s
  Stream #2:0: Audio: mp3 (mp3float), 44100 Hz, stereo, fltp, 192 kb/s, start 0.025057
    Metadata:
      encoder         : Lavc62.28
Stream mapping:
  Stream #0:0 (h264) -> trim:default
  Stream #1:0 (mp3float) -> atrim:default
  Stream #2:0 (mp3float) -> atrim:default
  concat:out:v0 -> Stream #0:0 (libx264)
  amix:default -> Stream #0:1 (aac)
Press [q] to stop, [?] for help
[libx264 @ 0000024930aa7100] using SAR=1/1
[libx264 @ 0000024930aa7100] using cpu capabilities: MMX2 SSE2Fast SSSE3 SSE4.2 AVX FMA3 BMI2 AVX2
[libx264 @ 0000024930aa7100] profile High, level 4.0, 4:2:0, 8-bit
[libx264 @ 0000024930aa7100] 264 - core 165 r3223 0480cb0 - H.264/MPEG-4 AVC codec - Copyleft 2003-2025 - http://www.videolan.org/x264.html - options: cabac=1 ref=3 deblock=1:0:0 analyse=0x3:0x113 me=hex subme=7 psy=1 psy_rd=1.00:0.00 mixed_ref=1 me_range=16 chroma_me=1 trellis=1 8x8dct=1 cqm=0 deadzone=21,11 fast_pskip=1 chroma_qp_offset=-2 threads=34 lookahead_threads=5 sliced_threads=0 nr=0 decimate=1 interlaced=0 bluray_compat=0 constrained_intra=0 bframes=3 b_pyramid=2 b_adapt=1 b_bias=0 direct=1 weightb=1 open_gop=0 weightp=2 keyint=250 keyint_min=25 scenecut=40 intra_refresh=0 rc_lookahead=40 rc=crf mbtree=1 crf=19.0 qcomp=0.60 qpmin=0 qpmax=69 qpstep=4 ip_ratio=1.40 aq=1:1.00
Output #0, mp4, to 'G:\workspace\yinghe-shijie\videos\exports\短视频\手机电车都在用，锂电池凭啥能充这么多次？\电池容量为何越来越低_短视频\电池容量为何越来越低_短视频.138712.partial.mp4':
  Metadata:
    major_brand     : isom
    minor_version   : 512
    compatible_brands: isomiso2avc1mp41
    encoder         : Lavf62.12.100
  Stream #0:0: Video: h264 (avc1 / 0x31637661), yuv420p(tv, bt709, progressive), 1920x1080 [SAR 1:1 DAR 16:9], q=2-31, 30 fps, 15360 tbn
    Metadata:
      encoder         : Lavc62.28.100 libx264
    Side data:
      CPB properties: bitrate max/min/avg: 0/0/0 buffer size: 0 vbv_delay: N/A
  Stream #0:1: Audio: aac (LC) (mp4a / 0x6134706D), 44100 Hz, stereo, fltp, 192 kb/s
    Metadata:
      encoder         : Lavc62.28.100 aac
frame=    6 fps=0.6 q=25.0 size=       0KiB time=N/A bitrate=N/A speed=N/A elapsed=0:00:09.33    frame=   11 fps=1.0 q=25.0 size=       0KiB time=00:00:00.30 bitrate=   1.3kbits/s speed=0.026x elapsed=0:00:11.53    frame=   38 fps=3.0 q=25.0 size=     256KiB time=00:00:01.20 bitrate=1747.9kbits/s speed=0.0958x elapsed=0:00:12.52    frame=   45 fps=3.4 q=25.0 size=     512KiB time=00:00:01.43 bitrate=2926.5kbits/s speed=0.11x elapsed=0:00:13.05    frame=   63 fps=4.6 q=25.0 size=     512KiB time=00:00:02.03 bitrate=2063.0kbits/s speed=0.149x elapsed=0:00:13.63    frame=   85 fps=6.0 q=25.0 size=     768KiB time=00:00:02.76 bitrate=2274.2kbits/s speed=0.195x elapsed=0:00:14.20    frame=  114 fps=7.7 q=25.0 size=    1280KiB time=00:00:03.16 bitrate=3311.4kbits/s speed=0.214x elapsed=0:00:14.82    frame=  126 fps=8.0 q=25.0 size=    1536KiB time=00:00:04.13 bitrate=3044.3kbits/s speed=0.262x elapsed=0:00:15.78    frame=  147 fps=9.0 q=25.0 size=    1792KiB time=00:00:04.83 bitrate=3037.3kbits/s speed=0.296x elapsed=0:00:16.31    frame=  147 fps=8.7 q=25.0 size=    1792KiB time=00:00:04.83 bitrate=3037.3kbits/s speed=0.286x elapsed=0:00:16.89    frame=  183 fps= 10 q=25.0 size=    2304KiB time=00:00:05.83 bitrate=3235.7kbits/s speed=0.333x elapsed=0:00:17.53    frame=  215 fps= 12 q=25.0 size=    3328KiB time=00:00:06.56 bitrate=4151.8kbits/s speed=0.358x elapsed=0:00:18.34    frame=  235 fps= 12 q=25.0 size=    3840KiB time=00:00:07.66 bitrate=4103.2kbits/s speed=0.389x elapsed=0:00:19.73    frame=  235 fps= 12 q=25.0 size=    3840KiB time=00:00:07.76 bitrate=4050.3kbits/s speed=0.381x elapsed=0:00:20.40    frame=  256 fps= 12 q=25.0 size=    4608KiB time=00:00:08.23 bitrate=4584.9kbits/s speed=0.392x elapsed=0:00:21.02    frame=  274 fps= 13 q=25.0 size=    5376KiB time=00:00:08.56 bitrate=5140.9kbits/s speed=0.395x elapsed=0:00:21.71    frame=  290 fps= 13 q=25.0 size=    5888KiB time=00:00:09.60 bitrate=5024.5kbits/s speed=0.424x elapsed=0:00:22.62    frame=  296 fps= 13 q=25.0 size=    6144KiB time=00:00:09.80 bitrate=5135.9kbits/s speed=0.423x elapsed=0:00:23.17    frame=  304 fps= 13 q=25.0 size=    6400KiB time=00:00:10.06 bitrate=5208.2kbits/s speed=0.423x elapsed=0:00:23.77    frame=  304 fps= 12 q=25.0 size=    6400KiB time=00:00:10.06 bitrate=5208.2kbits/s speed=0.408x elapsed=0:00:24.69    frame=  325 fps= 13 q=25.0 size=    7168KiB time=00:00:10.43 bitrate=5628.2kbits/s speed=0.41x elapsed=0:00:25.42    frame=  341 fps= 13 q=25.0 size=    7680KiB time=00:00:11.10 bitrate=5668.0kbits/s speed=0.426x elapsed=0:00:26.08    frame=  352 fps= 13 q=25.0 size=    7936KiB time=00:00:11.66 bitrate=5572.5kbits/s speed=0.433x elapsed=0:00:26.93    frame=  392 fps= 14 q=25.0 size=    8448KiB time=00:00:12.86 bitrate=5378.7kbits/s speed=0.467x elapsed=0:00:27.53    frame=  426 fps= 15 q=25.0 size=    8960KiB time=00:00:14.00 bitrate=5242.9kbits/s speed=0.497x elapsed=0:00:28.18    frame=  467 fps= 16 q=25.0 size=    9216KiB time=00:00:15.46 bitrate=4881.3kbits/s speed=0.537x elapsed=0:00:28.81    frame=  495 fps= 17 q=25.0 size=    9472KiB time=00:00:16.43 bitrate=4721.8kbits/s speed=0.559x elapsed=0:00:29.40    frame=  542 fps= 18 q=25.0 size=    9984KiB time=00:00:18.00 bitrate=4543.9kbits/s speed=0.598x elapsed=0:00:30.07    frame=  579 fps= 19 q=25.0 size=   10240KiB time=00:00:18.96 bitrate=4422.8kbits/s speed=0.618x elapsed=0:00:30.70    frame=  651 fps= 21 q=25.0 size=   10752KiB time=00:00:21.03 bitrate=4187.7kbits/s speed=0.669x elapsed=0:00:31.43    frame=  716 fps= 22 q=25.0 size=   11008KiB time=00:00:23.46 bitrate=3842.8kbits/s speed=0.731x elapsed=0:00:32.11    frame=  769 fps= 23 q=25.0 size=   11520KiB time=00:00:24.96 bitrate=3779.9kbits/s speed=0.762x elapsed=0:00:32.77    frame=  819 fps= 24 q=25.0 size=   11776KiB time=00:00:27.23 bitrate=3542.3kbits/s speed=0.808x elapsed=0:00:33.69    frame=  860 fps= 25 q=25.0 size=   11776KiB time=00:00:28.56 bitrate=3377.0kbits/s speed=0.833x elapsed=0:00:34.31    frame=  882 fps= 25 q=25.0 size=   12288KiB time=00:00:28.86 bitrate=3487.2kbits/s speed=0.826x elapsed=0:00:34.95    frame=  902 fps= 25 q=25.0 size=   12544KiB time=00:00:30.00 bitrate=3425.4kbits/s speed=0.839x elapsed=0:00:35.74    frame=  910 fps= 25 q=25.0 size=   12800KiB time=00:00:30.00 bitrate=3495.3kbits/s speed=0.826x elapsed=0:00:36.33    frame=  935 fps= 25 q=25.0 size=   13312KiB time=00:00:31.10 bitrate=3506.5kbits/s speed=0.839x elapsed=0:00:37.06    frame=  936 fps= 25 q=25.0 size=   13568KiB time=00:00:31.13 bitrate=3570.1kbits/s speed=0.826x elapsed=0:00:37.67    frame=  964 fps= 25 q=25.0 size=   14336KiB time=00:00:32.06 bitrate=3662.4kbits/s speed=0.837x elapsed=0:00:38.31    frame=  970 fps= 25 q=25.0 size=   14848KiB time=00:00:32.26 bitrate=3769.7kbits/s speed=0.83x elapsed=0:00:38.87    frame=  999 fps= 25 q=25.0 size=   16128KiB time=00:00:33.13 bitrate=3987.6kbits/s speed=0.839x elapsed=0:00:39.51    frame= 1004 fps= 25 q=25.0 size=   16384KiB time=00:00:33.40 bitrate=4018.5kbits/s speed=0.834x elapsed=0:00:40.07    frame= 1037 fps= 25 q=25.0 size=   17408KiB time=00:00:34.23 bitrate=4165.7kbits/s speed=0.842x elapsed=0:00:40.66    frame= 1050 fps= 25 q=25.0 size=   17920KiB time=00:00:34.93 bitrate=4202.3kbits/s speed=0.847x elapsed=0:00:41.26    frame= 1082 fps= 26 q=25.0 size=   18688KiB time=00:00:35.93 bitrate=4260.5kbits/s speed=0.86x elapsed=0:00:41.80    frame= 1116 fps= 26 q=25.0 size=   19456KiB time=00:00:36.93 bitrate=4315.4kbits/s speed=0.87x elapsed=0:00:42.44    frame= 1168 fps= 27 q=25.0 size=   19712KiB time=00:00:38.86 bitrate=4154.7kbits/s speed= 0.9x elapsed=0:00:43.16    frame= 1214 fps= 28 q=25.0 size=   19712KiB time=00:00:40.40 bitrate=3997.1kbits/s speed=0.923x elapsed=0:00:43.76    frame= 1263 fps= 28 q=25.0 size=   20224KiB time=00:00:42.03 bitrate=3941.5kbits/s speed=0.947x elapsed=0:00:44.36    frame= 1297 fps= 29 q=25.0 size=   20480KiB time=00:00:43.16 bitrate=3886.6kbits/s speed=0.961x elapsed=0:00:44.93    frame= 1352 fps= 30 q=25.0 size=   20736KiB time=00:00:45.00 bitrate=3774.9kbits/s speed=0.989x elapsed=0:00:45.49    frame= 1364 fps= 30 q=25.0 size=   20736KiB time=00:00:45.00 bitrate=3774.9kbits/s speed=0.977x elapsed=0:00:46.04    frame= 1422 fps= 30 q=25.0 size=   20992KiB time=00:00:47.33 bitrate=3633.1kbits/s speed=1.01x elapsed=0:00:46.78    frame= 1464 fps= 31 q=25.0 size=   20992KiB time=00:00:48.60 bitrate=3538.4kbits/s speed=1.03x elapsed=0:00:47.38    frame= 1496 fps= 31 q=25.0 size=   21248KiB time=00:00:49.66 bitrate=3504.6kbits/s speed=1.04x elapsed=0:00:47.95    frame= 1518 fps= 31 q=25.0 size=   21760KiB time=00:00:50.53 bitrate=3527.5kbits/s speed=1.04x elapsed=0:00:48.66    frame= 1534 fps= 31 q=25.0 size=   22528KiB time=00:00:50.80 bitrate=3632.9kbits/s speed=1.03x elapsed=0:00:49.27    frame= 1564 fps= 31 q=25.0 size=   23808KiB time=00:00:51.86 bitrate=3760.3kbits/s speed=1.04x elapsed=0:00:50.02    frame= 1584 fps= 31 q=25.0 size=   24320KiB time=00:00:52.50 bitrate=3794.9kbits/s speed=1.04x elapsed=0:00:50.66    frame= 1615 fps= 31 q=25.0 size=   24576KiB time=00:00:53.66 bitrate=3751.4kbits/s speed=1.05x elapsed=0:00:51.29    frame= 1651 fps= 32 q=25.0 size=   25088KiB time=00:00:54.96 bitrate=3739.0kbits/s speed=1.06x elapsed=0:00:51.94    frame= 1685 fps= 32 q=25.0 size=   25344KiB time=00:00:56.10 bitrate=3700.9kbits/s speed=1.07x elapsed=0:00:52.50    frame= 1707 fps= 32 q=25.0 size=   25600KiB time=00:00:56.73 bitrate=3696.5kbits/s speed=1.07x elapsed=0:00:53.06    frame= 1761 fps= 33 q=25.0 size=   26368KiB time=N/A bitrate=N/A speed=N/A elapsed=0:00:53.65    [mp4 @ 0000024930c92040] Starting second pass: moving the moov atom to the beginning of the file
[out#0/mp4 @ 0000024930824600] video:25360KiB audio:1429KiB subtitle:0KiB other streams:0KiB global headers:0KiB muxing overhead: 0.237566%
frame= 1794 fps= 33 q=-1.0 Lsize=   26853KiB time=00:00:59.73 bitrate=3682.7kbits/s speed= 1.1x elapsed=0:00:54.34    
[libx264 @ 0000024930aa7100] frame I:8     Avg QP:13.76  size:249430
[libx264 @ 0000024930aa7100] frame P:612   Avg QP:17.93  size: 31681
[libx264 @ 0000024930aa7100] frame B:1174  Avg QP:21.55  size:  3904
[libx264 @ 0000024930aa7100] consecutive B-frames:  4.0% 19.5% 20.1% 56.4%
[libx264 @ 0000024930aa7100] mb I  I16..4: 18.1% 42.3% 39.7%
[libx264 @ 0000024930aa7100] mb P  I16..4:  2.6%  4.3%  1.3%  P16..4: 24.6% 12.0%  5.9%  0.0%  0.0%    skip:49.3%
[libx264 @ 0000024930aa7100] mb B  I16..4:  0.2%  0.2%  0.1%  B16..8: 17.6%  1.8%  0.3%  direct: 0.6%  skip:79.3%  L0:44.1% L1:45.4% BI:10.4%
[libx264 @ 0000024930aa7100] 8x8 transform intra:50.3% inter:63.7%
[libx264 @ 0000024930aa7100] coded y,uvDC,uvAC intra: 39.7% 56.7% 37.1% inter: 6.2% 7.0% 1.6%
[libx264 @ 0000024930aa7100] i16 v,h,dc,p: 31% 47%  8% 14%
[libx264 @ 0000024930aa7100] i8 v,h,dc,ddl,ddr,vr,hd,vl,hu: 21% 25% 27%  4%  4%  4%  5%  4%  7%
[libx264 @ 0000024930aa7100] i4 v,h,dc,ddl,ddr,vr,hd,vl,hu: 27% 27% 15%  4%  6%  5%  6%  5%  5%
[libx264 @ 0000024930aa7100] i8c dc,h,v,p: 46% 28% 20%  7%
[libx264 @ 0000024930aa7100] Weighted P-Frames: Y:1.3% UV:1.3%
[libx264 @ 0000024930aa7100] ref P L0: 67.8% 17.3% 11.2%  3.8%  0.0%
[libx264 @ 0000024930aa7100] ref B L0: 86.1% 12.1%  1.8%
[libx264 @ 0000024930aa7100] ref B L1: 99.1%  0.9%
[libx264 @ 0000024930aa7100] kb/s:3473.91
[aac @ 0000024930aac980] Qavg: 680.116
